<svg width="28" height="28" fill="none" xmlns="http://www.w3.org/2000/svg">
  <path d="M18.297 0H9.703C1.859 0 0 1.86 0 9.703v8.594C0 26.141 1.86 28 9.703 28h8.594C26.141 28 28 26.14 28 18.297V9.703C28 1.859 26.122 0 18.297 0Zm4.307 19.974h-2.032c-.77 0-1.008-.61-2.393-2.014-1.203-1.167-1.736-1.322-2.032-1.322-.42 0-.538.119-.538.693v1.837c0 .493-.155.788-1.459.788-2.156 0-4.548-1.303-6.225-3.732-2.53-3.56-3.222-6.226-3.222-6.777 0-.297.118-.574.688-.574h2.037c.515 0 .711.237.911.788 1.007 2.908 2.685 5.455 3.377 5.455.255 0 .373-.118.373-.77v-3.003c-.077-1.385-.806-1.504-.806-1.996 0-.237.196-.474.51-.474h3.203c.433 0 .592.237.592.747v4.051c0 .438.197.593.315.593.255 0 .474-.155.947-.63 1.463-1.64 2.511-4.17 2.511-4.17.137-.296.374-.573.89-.573h2.036c.611 0 .748.314.611.751-.256 1.185-2.748 4.703-2.748 4.703-.215.355-.297.51 0 .907.219.296.93.911 1.403 1.463.87.988 1.54 1.818 1.719 2.392.2.57-.096.866-.67.866h.002Z" fill="#323232"/>
</svg>
