<svg width="28" height="28" fill="none" xmlns="http://www.w3.org/2000/svg">
  <path d="M28 14a14 14 0 1 1-28 0 14 14 0 0 1 28 0Zm-13.498-3.665c-1.361.567-4.084 1.74-8.165 3.518-.662.263-1.01.521-1.042.774-.052.425.482.593 1.208.822l.306.096c.714.233 1.677.504 2.176.515.455.01.96-.175 1.519-.56 3.813-2.575 5.781-3.875 5.904-3.903.087-.02.21-.045.29.028.083.072.074.21.065.247-.052.226-2.147 2.172-3.23 3.18-.338.315-.578.537-.627.588-.108.11-.217.218-.329.325-.665.64-1.162 1.12.027 1.904.572.378 1.03.688 1.487 1 .497.339.994.677 1.638 1.1.163.105.32.219.473.328.579.412 1.102.784 1.744.724.375-.035.761-.385.957-1.435.464-2.48 1.376-7.85 1.586-10.064a2.492 2.492 0 0 0-.023-.552.59.59 0 0 0-.2-.38.92.92 0 0 0-.542-.162c-.525.009-1.335.29-5.222 1.907Z" fill="#323232"/>
</svg>
