<svg width="549" height="90" fill="none" xmlns="http://www.w3.org/2000/svg">
  <path d="M168.28 71.64c0-.64 0-1.44-.72-1.44h-4.24c-.48 0-.72-.24-.72-1.04V20.04c0-.8.24-1.04.72-1.04h4.24c.72 0 .72-.72.72-1.36 0-.64 0-1.44-.72-1.44H111.8c-.72 0-.72.8-.72 1.44 0 .64 0 1.36.72 1.36h4.24c.48 0 .72.24.72 1.04v49.12c0 .8-.24 1.04-.72 1.04h-4.24c-.72 0-.72.8-.72 1.44 0 .64 0 1.36.72 1.36h19.04c.72 0 .72-.72.72-1.36 0-.64 0-1.44-.72-1.44h-4.24c-.48 0-.72-.24-.72-1.04V19.8h27.6v49.36c0 .8-.24 1.04-.72 1.04h-4.24c-.72 0-.72.8-.72 1.44 0 .64 0 1.36.72 1.36h19.04c.72 0 .72-.72.72-1.36ZM201.688 33.96c0 4.48-1.92 14.24-11.2 14.24h-3.28V19.72h3.28c9.28 0 11.2 9.76 11.2 14.24Zm10.08 0c0-12.72-8.88-17.76-20.48-17.76h-18.16c-.72 0-.72.8-.72 1.44 0 .64 0 1.36.72 1.36h4.24c.48 0 .72.24.72 1.04v49.12c0 .8-.24 1.04-.72 1.04h-4.24c-.72 0-.72.8-.72 1.44 0 .64 0 1.36.72 1.36h19.04c.72 0 .72-.72.72-1.36 0-.64 0-1.44-.72-1.44h-4.24c-.48 0-.72-.24-.72-1.04V51.72h4.08c11.6 0 20.48-5.04 20.48-17.76ZM266.543 44.52c0 14-7.28 25.28-19.36 25.28-12.16 0-19.2-11.28-19.2-25.28 0-14 7.04-25.36 19.2-25.36 12.08 0 19.36 11.36 19.36 25.36Zm10.08.08c0-16.16-13.04-29.36-29.44-29.36-16.24 0-29.28 13.2-29.28 29.36 0 16.32 13.04 29.36 29.28 29.36 16.4 0 29.44-13.04 29.44-29.36ZM370.512 68.36c0-.88-.64-1.2-1.36-1.2-.8 0-3.28 1.36-4.88 1.36-7.28 0-10.96-5.76-14.4-12.64-3.6-7.2-8.16-16.72-19.76-18.64 1.36-8.24 7.12-17.92 13.12-17.92-.24.72-.4 1.36-.4 1.92 0 2.8 1.84 4.08 4.56 4.08 3.2 0 4.64-2.64 4.64-4.64 0-5.04-4.56-5.44-6.8-5.44-11.52 0-17.2 12.16-19.36 21.44h-.32V20.04c0-.56.16-1.04.88-1.04h4.08c.72 0 .72-.72.72-1.36 0-.64 0-1.44-.72-1.44h-19.04c-.72 0-.72.8-.72 1.44 0 .64 0 1.36.72 1.36h4.24c.48 0 .72.24.72 1.04v16.64h-.32c-2.16-9.28-7.84-21.44-19.36-21.44-2.24 0-6.8.4-6.8 5.44 0 2 1.44 4.64 4.64 4.64 2.72 0 4.56-1.28 4.56-4.08 0-.56-.16-1.2-.4-1.92 6 0 11.76 9.68 13.12 17.92-11.6 1.92-16.16 11.44-19.76 18.64-3.44 6.88-7.12 12.64-14.4 12.64-1.6 0-4.08-1.36-4.88-1.36-.72 0-1.36.32-1.36 1.2 0 2.64 6.08 5.68 10.56 5.68 10.96 0 14.08-4.32 19.04-13.76 4.48-8.56 7.84-17.6 15.36-17.6v26.48c0 .8-.24 1.04-.72 1.04h-4.24c-.72 0-.72.8-.72 1.44 0 .64 0 1.36.72 1.36h19.04c.72 0 .72-.72.72-1.36 0-.64 0-1.44-.72-1.44h-4.24c-.48 0-.72-.24-.72-1.04V42.68c7.52 0 10.88 9.04 15.36 17.6 4.96 9.44 8.08 13.76 19.04 13.76 4.48 0 10.56-3.04 10.56-5.68ZM431.793 71.64c0-.64 0-1.44-.72-1.44h-4.24c-.48 0-.72-.24-.72-1.04V20.04c0-.8.24-1.04.72-1.04h4.24c.72 0 .72-.72.72-1.36 0-.64 0-1.44-.72-1.44h-19.04c-.72 0-.72.8-.72 1.44 0 .64 0 1.36.72 1.36h4.24c.48 0 .72.24.72 1.04v1.6l-30.8 39.2v-40.8c0-.8.24-1.04.72-1.04h4.16c.72 0 .72-.72.72-1.36 0-.64 0-1.44-.72-1.44h-18.96c-.72 0-.72.8-.72 1.44 0 .64 0 1.36.72 1.36h4.24c.48 0 .72.24.72 1.04v49.12c0 .8-.24 1.04-.72 1.04h-4.24c-.72 0-.72.8-.72 1.44 0 .64 0 1.36.72 1.36h19.04c.72 0 .72-.72.72-1.36 0-.64 0-1.44-.72-1.44h-4.24c-.48 0-.72-.24-.72-1.04v-1.44l30.8-39.2v40.64c0 .8-.24 1.04-.72 1.04h-4.24c-.72 0-.72.8-.72 1.44 0 .64 0 1.36.72 1.36h19.04c.72 0 .72-.72.72-1.36ZM434.484 24.36c-.08.16-.24.56-.24.88 0 .72.72.8 1.76.8s1.52-.32 1.76-.56l3.76-3.6c1.36-1.36 3.2-2.16 5.68-2.16h9.2v49.44c0 .72-.24.96-.72.96h-4.24c-.72 0-.72.72-.72 1.36 0 .64 0 1.44.72 1.52h19.04c.72-.08.72-.88.72-1.52s0-1.36-.72-1.36h-4.24c-.48 0-.72-.24-.72-.96V19.72h9.2c2.48 0 4.32.8 5.68 2.16l3.76 3.6c.24.24.72.56 1.76.56s1.76-.08 1.76-.8c0-.32-.16-.72-.24-.88l-4.08-8.16h-44.8l-4.08 8.16ZM538.34 44.52c0 14-7.28 25.28-19.36 25.28-12.16 0-19.2-11.28-19.2-25.28 0-14 7.04-25.36 19.2-25.36 12.08 0 19.36 11.36 19.36 25.36Zm10.08.08c0-16.16-13.04-29.36-29.44-29.36-16.24 0-29.28 13.2-29.28 29.36 0 16.32 13.04 29.36 29.28 29.36 16.4 0 29.44-13.04 29.44-29.36Z" fill="#323232"/>
  <circle cx="45" cy="45" r="45" fill="#E96A41"/>
  <path d="M30.427 25h18.012L35.012 65H17l13.427-40ZM54.987 25H73L59.572 65H41.56l13.427-40Z" fill="#fff"/>
</svg>
