<svg width="176" height="182" fill="none" xmlns="http://www.w3.org/2000/svg">
  <path fill="#323232" stroke="#323232" d="M1 .524h174v180.953H1z"/>
  <mask id="a" style="mask-type:alpha" maskUnits="userSpaceOnUse" x="1" y="1" width="174" height="180">
    <path fill="#EBEBE9" d="M1.5 1h173v180H1.5z"/>
  </mask>
  <g mask="url(#a)" fill="#E7E4DE" stroke="#323232">
    <path d="M88 242.496c11.36 0 22.607-1.637 33.102-4.818 10.495-3.181 20.03-7.843 28.063-13.72 8.032-5.877 14.404-12.855 18.751-20.533 4.347-7.679 6.584-15.91 6.584-24.221 0-8.312-2.237-16.542-6.584-24.221-4.347-7.679-10.719-14.656-18.751-20.533-8.033-5.877-17.568-10.539-28.063-13.72-10.495-3.181-21.743-4.818-33.102-4.818v126.584ZM88 115.913c-11.36 0-22.607 1.637-33.102 4.817-10.495 3.181-20.03 7.843-28.063 13.72-8.032 5.877-14.404 12.855-18.75 20.534-4.348 7.679-6.585 15.909-6.585 24.22 0 8.312 2.237 16.542 6.584 24.221 4.348 7.679 10.719 14.656 18.751 20.533 8.032 5.878 17.568 10.54 28.063 13.72 10.494 3.181 21.743 4.818 33.102 4.818V115.913Z"/>
  </g>
  <path d="M109.088 140.734v-24.297L87.57 129.608l21.518 11.126ZM66.914 140.734v-24.297l20.656 13.171-20.656 11.126Z" fill="#E7E4DE" stroke="#323232"/>
  <path d="M88.112 129.128c3.625 0 7.214-.867 10.563-2.553 3.349-1.685 6.392-4.156 8.955-7.271 2.563-3.114 4.597-6.812 5.984-10.881 1.387-4.069 2.101-8.43 2.101-12.835 0-4.405-.714-8.766-2.101-12.836-1.387-4.069-3.421-7.766-5.984-10.88-2.563-3.115-5.606-5.586-8.955-7.272-3.349-1.685-6.938-2.553-10.563-2.553V129.128Z" fill="#E7E4DE" stroke="#323232"/>
  <path d="M88.113 62.047c-3.625 0-7.215.868-10.564 2.554-3.349 1.685-6.391 4.156-8.955 7.27-2.563 3.115-4.596 6.812-5.983 10.882-1.387 4.069-2.101 8.43-2.101 12.835 0 4.405.714 8.766 2.1 12.835 1.388 4.07 3.421 7.767 5.984 10.882 2.564 3.114 5.607 5.585 8.956 7.27 3.348 1.686 6.938 2.553 10.563 2.553v-67.08Z" fill="#E7E4DE" stroke="#323232"/>
</svg>
